# xmcd
#
# Track frame offsets:
#	150
#	23883
#	49570
#	65344
#	99977
#	112571
#	121823
#	142765
#	160642
#	176883
#	209612
#	224082
#	235749
#	257502
#	277079
#	285537
#	302621
#	319200
#
# Disc length: 4503 seconds
#
# Revision: 0
# Processed by: cddbd v1.5.2PL0 Copyright (c) Steve Scherf et al.
# Submitted via: audiograbber 1.83.01
#
DISCID=fa119512
DTITLE=Soul and Funk Intégrale - #1
DYEAR=2008
DGENRE=Soul Funk
TTITLE0=Chic - Le freak [Live]
TTITLE1=Imagination - Just an illusion [Live]
TTITLE2=Eddie Floyd - Knock on wood
TTITLE3=Funkadelic - (Not just) knee deep
TTITLE4=Maceo and All the king's men - Gotta get cha
TTITLE5=Al Jarreau - ain't no sunshine
TTITLE6=Kool and The gang - Celebration (Live)
TTITLE7=Ike and Tina Turner - River deep, mountain high
TTITLE8=Irma Thomas - Lady Marmelade [Live]
TTITLE9=Leroy Huston - Butterfat
TTITLE10=Bobby Woamack - I don't know what the worlds coming to
TTITLE11=Lightnin Rod - Sport
TTITLE12=Fred Wesley - Life is Wonderful
TTITLE13=Marvin Gaye - I heard it through the grapevine [Live]
TTITLE14=Ohio Players - Trespassin'
TTITLE15=Evelyne Thomas - High energy
TTITLE16=Prince With 94 East - Games
TTITLE17=Jocelyn Brown - Somebody else's guy
EXTD=
EXTT0=
EXTT1=
EXTT2=
EXTT3=
EXTT4=
EXTT5=
EXTT6=
EXTT7=
EXTT8=
EXTT9=
EXTT10=
EXTT11=
EXTT12=
EXTT13=
EXTT14=
EXTT15=
EXTT16=
EXTT17=
PLAYORDER=
